<svg xmlns="http://www.w3.org/2000/svg" viewBox="0 0 80 80" width="512" height="512">
  <rect width="80" height="80" rx="14" ry="14" fill="#921416"/>
  <path
    d="M22 10C22 7.79086 23.7909 6 26 6H46L58 18V66C58 68.2091 56.2091 70 54 70H26C23.7909 70 22 68.2091 22 66V10Z"
    fill="none"
    stroke="#FFFFFF"
    stroke-width="3"
    stroke-linejoin="round"
  />
  <path d="M46 6V14C46 16.2091 47.7909 18 50 18H58" fill="none" stroke="#FFFFFF" stroke-width="3" stroke-linejoin="round"/>
  <rect x="30" y="24" width="20" height="3" rx="1.5" fill="#FFFFFF"/>
  <rect x="30" y="32" width="16" height="3" rx="1.5" fill="#FFFFFF"/>
  <rect x="30" y="40" width="18" height="3" rx="1.5" fill="#FFFFFF"/>
  <circle cx="52" cy="56" r="14" fill="#921416" stroke="#FFFFFF" stroke-width="3"/>
  <circle cx="52" cy="56" r="9" fill="none" stroke="#FFFFFF" stroke-width="2"/>
  <circle cx="52" cy="56" r="2.5" fill="#FFFFFF"/>
  <path d="M52 56L60.5 49.5" stroke="#FFFFFF" stroke-width="2.5" stroke-linecap="round"/>
</svg>
